<mxfile host="app.diagrams.net" modified="2021-10-27T07:59:37.577Z" agent="5.0 (Macintosh; Intel Mac OS X 10_14_6) AppleWebKit/537.36 (KHTML, like Gecko) Chrome/95.0.4638.54 Safari/537.36" etag="Qw8AKsLC4drpd1qL0V_n" version="15.5.9" type="github">
  <diagram id="C5RBs43oDa-KdzZeNtuy" name="Page-1">
    <mxGraphModel dx="931" dy="532" grid="1" gridSize="10" guides="1" tooltips="1" connect="1" arrows="1" fold="1" page="1" pageScale="1" pageWidth="827" pageHeight="1169" math="0" shadow="0">
      <root>
        <mxCell id="WIyWlLk6GJQsqaUBKTNV-0" />
        <mxCell id="WIyWlLk6GJQsqaUBKTNV-1" parent="WIyWlLk6GJQsqaUBKTNV-0" />
        <mxCell id="FALt8wPv3_poAK63yUZf-7" style="edgeStyle=orthogonalEdgeStyle;rounded=0;orthogonalLoop=1;jettySize=auto;html=1;exitX=0.5;exitY=1;exitDx=0;exitDy=0;entryX=0.5;entryY=0;entryDx=0;entryDy=0;fontSize=11;" edge="1" parent="WIyWlLk6GJQsqaUBKTNV-1" source="FALt8wPv3_poAK63yUZf-2" target="FALt8wPv3_poAK63yUZf-6">
          <mxGeometry relative="1" as="geometry" />
        </mxCell>
        <mxCell id="FALt8wPv3_poAK63yUZf-2" value="waiting_zset" style="rounded=1;whiteSpace=wrap;html=1;fontSize=11;" vertex="1" parent="WIyWlLk6GJQsqaUBKTNV-1">
          <mxGeometry x="320" y="30" width="80" height="40" as="geometry" />
        </mxCell>
        <mxCell id="FALt8wPv3_poAK63yUZf-4" value="数据接入到zset" style="text;html=1;resizable=0;autosize=1;align=center;verticalAlign=middle;points=[];fillColor=none;strokeColor=none;rounded=0;fontSize=11;" vertex="1" parent="WIyWlLk6GJQsqaUBKTNV-1">
          <mxGeometry x="310" y="10" width="100" height="20" as="geometry" />
        </mxCell>
        <mxCell id="FALt8wPv3_poAK63yUZf-9" style="edgeStyle=orthogonalEdgeStyle;rounded=0;orthogonalLoop=1;jettySize=auto;html=1;exitX=0.5;exitY=1;exitDx=0;exitDy=0;fontSize=11;" edge="1" parent="WIyWlLk6GJQsqaUBKTNV-1" source="FALt8wPv3_poAK63yUZf-6">
          <mxGeometry relative="1" as="geometry">
            <mxPoint x="360.0344827586207" y="150" as="targetPoint" />
          </mxGeometry>
        </mxCell>
        <mxCell id="FALt8wPv3_poAK63yUZf-6" value="计算poi九宫格" style="rounded=1;whiteSpace=wrap;html=1;fontSize=11;" vertex="1" parent="WIyWlLk6GJQsqaUBKTNV-1">
          <mxGeometry x="320" y="90" width="80" height="40" as="geometry" />
        </mxCell>
        <mxCell id="FALt8wPv3_poAK63yUZf-8" value="消费zset" style="text;html=1;resizable=0;autosize=1;align=center;verticalAlign=middle;points=[];fillColor=none;strokeColor=none;rounded=0;fontSize=11;" vertex="1" parent="WIyWlLk6GJQsqaUBKTNV-1">
          <mxGeometry x="360" y="70" width="60" height="20" as="geometry" />
        </mxCell>
        <mxCell id="FALt8wPv3_poAK63yUZf-11" style="edgeStyle=orthogonalEdgeStyle;rounded=0;orthogonalLoop=1;jettySize=auto;html=1;exitX=0;exitY=0.5;exitDx=0;exitDy=0;entryX=0;entryY=0.5;entryDx=0;entryDy=0;fontSize=11;" edge="1" parent="WIyWlLk6GJQsqaUBKTNV-1" source="FALt8wPv3_poAK63yUZf-10" target="FALt8wPv3_poAK63yUZf-2">
          <mxGeometry relative="1" as="geometry">
            <Array as="points">
              <mxPoint x="270" y="170" />
              <mxPoint x="270" y="50" />
            </Array>
          </mxGeometry>
        </mxCell>
        <mxCell id="FALt8wPv3_poAK63yUZf-15" style="edgeStyle=orthogonalEdgeStyle;rounded=0;orthogonalLoop=1;jettySize=auto;html=1;exitX=0.5;exitY=1;exitDx=0;exitDy=0;entryX=0.5;entryY=0;entryDx=0;entryDy=0;fontSize=11;" edge="1" parent="WIyWlLk6GJQsqaUBKTNV-1" source="FALt8wPv3_poAK63yUZf-10" target="FALt8wPv3_poAK63yUZf-14">
          <mxGeometry relative="1" as="geometry" />
        </mxCell>
        <mxCell id="FALt8wPv3_poAK63yUZf-10" value="mget九宫格" style="rounded=1;whiteSpace=wrap;html=1;fontSize=11;" vertex="1" parent="WIyWlLk6GJQsqaUBKTNV-1">
          <mxGeometry x="320" y="150" width="80" height="40" as="geometry" />
        </mxCell>
        <mxCell id="FALt8wPv3_poAK63yUZf-12" value="如果九宫格中有一个&lt;br&gt;在redis中存在,&lt;br&gt;重新入waitingset" style="text;html=1;resizable=0;autosize=1;align=center;verticalAlign=middle;points=[];fillColor=none;strokeColor=none;rounded=0;fontSize=11;" vertex="1" parent="WIyWlLk6GJQsqaUBKTNV-1">
          <mxGeometry x="140" y="90" width="120" height="40" as="geometry" />
        </mxCell>
        <mxCell id="FALt8wPv3_poAK63yUZf-23" style="edgeStyle=orthogonalEdgeStyle;rounded=0;orthogonalLoop=1;jettySize=auto;html=1;exitX=0.5;exitY=1;exitDx=0;exitDy=0;entryX=0.5;entryY=0;entryDx=0;entryDy=0;fontSize=11;" edge="1" parent="WIyWlLk6GJQsqaUBKTNV-1" source="FALt8wPv3_poAK63yUZf-14" target="FALt8wPv3_poAK63yUZf-17">
          <mxGeometry relative="1" as="geometry" />
        </mxCell>
        <mxCell id="FALt8wPv3_poAK63yUZf-14" value="poi set进入redis,标记网格占用" style="rounded=1;whiteSpace=wrap;html=1;fontSize=11;" vertex="1" parent="WIyWlLk6GJQsqaUBKTNV-1">
          <mxGeometry x="320" y="220" width="80" height="40" as="geometry" />
        </mxCell>
        <mxCell id="FALt8wPv3_poAK63yUZf-27" style="edgeStyle=orthogonalEdgeStyle;rounded=0;orthogonalLoop=1;jettySize=auto;html=1;entryX=0.5;entryY=0;entryDx=0;entryDy=0;fontSize=11;" edge="1" parent="WIyWlLk6GJQsqaUBKTNV-1" source="FALt8wPv3_poAK63yUZf-17" target="FALt8wPv3_poAK63yUZf-25">
          <mxGeometry relative="1" as="geometry" />
        </mxCell>
        <mxCell id="FALt8wPv3_poAK63yUZf-17" value="deal_datahub" style="rounded=1;whiteSpace=wrap;html=1;fontSize=11;" vertex="1" parent="WIyWlLk6GJQsqaUBKTNV-1">
          <mxGeometry x="320" y="290" width="80" height="40" as="geometry" />
        </mxCell>
        <mxCell id="FALt8wPv3_poAK63yUZf-19" value="九宫格都get不到" style="text;html=1;resizable=0;autosize=1;align=center;verticalAlign=middle;points=[];fillColor=none;strokeColor=none;rounded=0;fontSize=11;" vertex="1" parent="WIyWlLk6GJQsqaUBKTNV-1">
          <mxGeometry x="364" y="190" width="100" height="20" as="geometry" />
        </mxCell>
        <mxCell id="FALt8wPv3_poAK63yUZf-24" value="数据推入deal_datahub" style="text;html=1;resizable=0;autosize=1;align=center;verticalAlign=middle;points=[];fillColor=none;strokeColor=none;rounded=0;fontSize=11;" vertex="1" parent="WIyWlLk6GJQsqaUBKTNV-1">
          <mxGeometry x="360" y="260" width="140" height="20" as="geometry" />
        </mxCell>
        <mxCell id="FALt8wPv3_poAK63yUZf-31" style="edgeStyle=orthogonalEdgeStyle;rounded=0;orthogonalLoop=1;jettySize=auto;html=1;exitX=0;exitY=0.5;exitDx=0;exitDy=0;fontSize=11;" edge="1" parent="WIyWlLk6GJQsqaUBKTNV-1" source="FALt8wPv3_poAK63yUZf-25">
          <mxGeometry relative="1" as="geometry">
            <mxPoint x="230" y="439.9999999999999" as="targetPoint" />
          </mxGeometry>
        </mxCell>
        <mxCell id="FALt8wPv3_poAK63yUZf-34" style="edgeStyle=orthogonalEdgeStyle;rounded=0;orthogonalLoop=1;jettySize=auto;html=1;exitX=0.5;exitY=1;exitDx=0;exitDy=0;entryX=0.5;entryY=0;entryDx=0;entryDy=0;fontSize=11;" edge="1" parent="WIyWlLk6GJQsqaUBKTNV-1" source="FALt8wPv3_poAK63yUZf-25" target="FALt8wPv3_poAK63yUZf-29">
          <mxGeometry relative="1" as="geometry" />
        </mxCell>
        <mxCell id="FALt8wPv3_poAK63yUZf-35" style="edgeStyle=orthogonalEdgeStyle;rounded=0;orthogonalLoop=1;jettySize=auto;html=1;exitX=1;exitY=0.5;exitDx=0;exitDy=0;entryX=0.5;entryY=0;entryDx=0;entryDy=0;fontSize=11;" edge="1" parent="WIyWlLk6GJQsqaUBKTNV-1" source="FALt8wPv3_poAK63yUZf-25" target="FALt8wPv3_poAK63yUZf-33">
          <mxGeometry relative="1" as="geometry" />
        </mxCell>
        <mxCell id="FALt8wPv3_poAK63yUZf-25" value="调用similar获取该guid图片的相似图片" style="rounded=1;whiteSpace=wrap;html=1;fontSize=11;" vertex="1" parent="WIyWlLk6GJQsqaUBKTNV-1">
          <mxGeometry x="320" y="360" width="80" height="40" as="geometry" />
        </mxCell>
        <mxCell id="FALt8wPv3_poAK63yUZf-28" value="消费datahub" style="text;html=1;resizable=0;autosize=1;align=center;verticalAlign=middle;points=[];fillColor=none;strokeColor=none;rounded=0;fontSize=11;" vertex="1" parent="WIyWlLk6GJQsqaUBKTNV-1">
          <mxGeometry x="364" y="330" width="80" height="20" as="geometry" />
        </mxCell>
        <mxCell id="FALt8wPv3_poAK63yUZf-29" value="当前guid标记为重复,流程结束" style="rounded=1;whiteSpace=wrap;html=1;fontSize=11;" vertex="1" parent="WIyWlLk6GJQsqaUBKTNV-1">
          <mxGeometry x="320" y="440" width="80" height="40" as="geometry" />
        </mxCell>
        <mxCell id="FALt8wPv3_poAK63yUZf-32" value="当前guid推入掘金" style="rounded=1;whiteSpace=wrap;html=1;fontSize=11;" vertex="1" parent="WIyWlLk6GJQsqaUBKTNV-1">
          <mxGeometry x="190" y="440" width="80" height="40" as="geometry" />
        </mxCell>
        <mxCell id="FALt8wPv3_poAK63yUZf-33" value="绑定相似关系,等待相似图片掘金完成" style="rounded=1;whiteSpace=wrap;html=1;fontSize=11;" vertex="1" parent="WIyWlLk6GJQsqaUBKTNV-1">
          <mxGeometry x="450" y="440" width="80" height="40" as="geometry" />
        </mxCell>
        <mxCell id="FALt8wPv3_poAK63yUZf-36" value="没有找到相似图片" style="text;html=1;resizable=0;autosize=1;align=center;verticalAlign=middle;points=[];fillColor=none;strokeColor=none;rounded=0;fontSize=11;" vertex="1" parent="WIyWlLk6GJQsqaUBKTNV-1">
          <mxGeometry x="120" y="390" width="110" height="20" as="geometry" />
        </mxCell>
        <mxCell id="FALt8wPv3_poAK63yUZf-37" value="相似图片已经作业完毕" style="text;html=1;resizable=0;autosize=1;align=center;verticalAlign=middle;points=[];fillColor=none;strokeColor=none;rounded=0;fontSize=11;" vertex="1" parent="WIyWlLk6GJQsqaUBKTNV-1">
          <mxGeometry x="304" y="410" width="140" height="20" as="geometry" />
        </mxCell>
        <mxCell id="FALt8wPv3_poAK63yUZf-38" value="相似图片已经推入掘金" style="text;html=1;resizable=0;autosize=1;align=center;verticalAlign=middle;points=[];fillColor=none;strokeColor=none;rounded=0;fontSize=11;" vertex="1" parent="WIyWlLk6GJQsqaUBKTNV-1">
          <mxGeometry x="490" y="390" width="140" height="20" as="geometry" />
        </mxCell>
      </root>
    </mxGraphModel>
  </diagram>
</mxfile>
